<?xml version="1.0" encoding="utf-8"?>
<!DOCTYPE svg PUBLIC "-//W3C//DTD SVG 1.1//EN" "http://www.w3.org/Graphics/SVG/1.1/DTD/svg11.dtd">
<svg version="1.1" xmlns="http://www.w3.org/2000/svg" xmlns:xlink="http://www.w3.org/1999/xlink" x="0px" y="0px" viewBox="0 0 1000 1000" enable-background="new 0 0 1000 1000" xml:space="preserve">
<metadata> Svg Vector Icons : http://www.onlinewebfonts.com/icon </metadata>
<g><g transform="translate(0.000000,512.000000) scale(0.100000,-0.100000)"><path d="M8405,4985.7c-36.5-19.2-84.6-57.7-105.8-86.5c-36.5-50-38.5-84.6-44.2-584.6l-5.8-532.6L6428.3,1961C4751.5,282.4,4601.6,138.2,4543.9,138.2c-117.3,0-276.9-109.6-346.1-240.4c-46.2-86.5-42.3-288.4,9.6-384.6c101.9-192.3,317.3-280.7,519.2-213.4c153.8,50,294.2,225,294.2,361.5c0,57.7,140.4,205.8,1822.9,1886.3l1820.9,1820.9h507.6c426.9,0,515.3,5.8,571.1,30.8c205.8,98.1,209.6,403.8,7.7,507.6c-69.2,34.6-111.5,38.5-499.9,38.5h-423v423c0,388.4-3.8,430.7-38.5,499.9C8720.3,5004.9,8541.5,5060.7,8405,4985.7z"/><path d="M4318.9,4195.4c-599.9-36.5-1136.4-178.8-1692.1-449.9c-734.5-359.6-1319.1-871.1-1767.1-1540.2C-205.6,615-146-1457.8,1009.7-2996.1c175-234.6,526.9-598,761.5-786.4c1942.1-1563.3,4778.3-1253.7,6331.9,690.3c515.3,644.2,859.5,1471,955.7,2297.8c30.8,265.3,26.9,821.1-7.7,1076.8c-67.3,511.5-200,946-424.9,1403.7c-153.8,315.3-388.4,688.4-423,674.9c-44.2-15.4-453.8-325-448-336.5c3.8-5.8,53.8-84.6,113.4-175c292.3-440.3,482.6-919.1,586.5-1474.8c48.1-267.3,57.7-867.2,17.3-1167.1c-230.7-1719-1546-3078.5-3243.8-3357.3C3980.5-4353.6,2717.2-3946,1826.9-3051.8C1155.8-2376.9,771.2-1536.6,690.5-571.3C646.3-27.2,734.7,584.3,934.7,1099.6c528.8,1374.8,1759.4,2328.6,3228.5,2501.6c246.1,28.8,869.1,11.5,1094.1-30.8c555.7-101.9,1034.5-292.3,1474.8-584.6c90.4-59.6,169.2-109.6,175-113.4c11.6-5.8,321.1,403.8,336.5,448c13.5,34.6-359.6,269.2-674.9,425C5866.8,4089.6,5111.1,4241.5,4318.9,4195.4z"/><path d="M4309.3,2722.5c-369.2-44.2-759.5-155.8-1048-301.9c-846-425-1421-1163.3-1628.7-2092.1c-38.5-176.9-44.2-250-44.2-623c0-363.4,7.7-449.9,42.3-609.5c63.5-278.8,128.8-459.6,265.4-736.4c288.4-582.6,763.4-1057.6,1346-1344.1c453.8-225,746.1-298,1249.9-313.4c396.1-11.5,632.6,15.4,955.7,111.5C7145.5-2682.6,8051.2-827.1,7405.1,816.9c-84.6,215.4-225,480.7-248.1,471.1c-9.6-3.8-121.1-69.2-248-148l-230.7-142.3l92.3-184.6C6955.1,442,7030.1,119,7028.2-304.1c-3.8-646.1-226.9-1197.9-676.8-1676.7c-890.3-942.2-2419-999.9-3384.2-125C2436.4-1627,2155.7-994.4,2155.7-282.9c0,1009.5,619.2,1909.4,1569,2274.7c282.7,107.7,530.7,153.8,853.7,153.8c423,1.9,748-73.1,1115.3-257.7l184.6-92.3l150,242.3c175,280.7,186.5,242.3-113.5,388.4c-403.8,198.1-780.7,288.4-1240.2,298C4511.2,2728.3,4345.8,2726.3,4309.3,2722.5z"/><path d="M4213.1,1213.1C3611.3,1057.3,3161.3,561.2,3061.4-54.1c-50-301.9,0-624.9,140.4-909.5c469.2-963.3,1730.6-1172.9,2488.2-415.3c203.8,203.8,334.6,436.5,407.6,717.2c63.5,253.8,44.2,761.4-30.8,761.4c-21.2,0-363.4-88.4-490.4-126.9c-26.9-7.7-28.8-34.6-21.1-186.5c3.9-101.9,0-223-13.5-282.7c-107.7-499.9-626.8-846.1-1119.1-744.2c-221.1,44.2-351.9,115.4-509.6,271.1c-155.8,157.7-226.9,288.4-271.1,509.6c-101.9,490.3,236.5,999.9,742.2,1117.2c63.5,15.4,173.1,21.2,282.7,15.4l178.8-9.6l28.8,98.1c71.1,251.9,113.4,434.6,101.9,446.1C4920.8,1263,4420.8,1266.9,4213.1,1213.1z"/></g></g>
</svg>